<?xml version="1.0" standalone="no"?><!DOCTYPE svg PUBLIC "-//W3C//DTD SVG 1.1//EN" "http://www.w3.org/Graphics/SVG/1.1/DTD/svg11.dtd"><svg t="1730361920410" class="icon" viewBox="0 0 1024 1024" version="1.1" xmlns="http://www.w3.org/2000/svg" p-id="1859" width="64" height="64" xmlns:xlink="http://www.w3.org/1999/xlink"><path d="M820.010667 107.306667l3.456 3.285333L913.429333 200.533333a86.421333 86.421333 0 0 1 3.242667 118.634667l-3.349333 3.541333-536.32 536.384c-2.773333 2.773333-6.058667 4.970667-9.749334 6.485334l-2.837333 1.024-241.28 70.976a29.973333 29.973333 0 0 1-29.12-7.594667 29.76 29.76 0 0 1-8.234667-26.112l0.704-3.157333 70.869334-240.981334c1.109333-3.904 3.008-7.488 5.546666-10.517333l2.005334-2.176L701.312 110.592a86.506667 86.506667 0 0 1 118.698667-3.264zM202.88 715.093333l-44.181333 150.229334 150.144-44.224-105.962667-106.005334z m456.768-479.104L221.781333 673.898667l128.234667 128.256 437.866667-437.909334-128.234667-128.277333z m88.085333-87.168l-2.346666 1.706667-2.197334 1.962667-53.504 53.461333 128.234667 128.256 53.44-53.44a27.157333 27.157333 0 0 0 1.984-36.138667l-1.984-2.197333-89.92-90.026667a27.136 27.136 0 0 0-33.706667-3.584z" p-id="1860" fill="#cdcdcd"></path></svg>