<?xml version="1.0" standalone="no"?><!DOCTYPE svg PUBLIC "-//W3C//DTD SVG 1.1//EN" "http://www.w3.org/Graphics/SVG/1.1/DTD/svg11.dtd"><svg t="1713738240000" class="icon" viewBox="0 0 1024 1024" version="1.1" xmlns="http://www.w3.org/2000/svg" p-id="4306" xmlns:xlink="http://www.w3.org/1999/xlink" width="64" height="64"><path d="M192 128c-35.328 0-64 28.672-64 64v576c0 35.328 28.672 64 64 64h640c35.328 0 64-28.672 64-64V192c0-35.328-28.672-64-64-64H192zm0 96h640v576H192V224z" fill="#ffffff" p-id="4307"></path><path d="M320 320h128v128H320V320zm0 192h128v128H320V512zm192-192h128v128H512V320zm0 192h128v128H512V512z" fill="#ffffff" p-id="4308"></path></svg>